<?xml version="1.0" standalone="no"?>
<!DOCTYPE svg PUBLIC "-//W3C//DTD SVG 20010904//EN"
 "http://www.w3.org/TR/2001/REC-SVG-20010904/DTD/svg10.dtd">
<svg version="1.0" xmlns="http://www.w3.org/2000/svg"
 width="256.000000pt" height="256.000000pt" viewBox="0 0 256.000000 256.000000"
 preserveAspectRatio="xMidYMid meet">
<metadata>
Created by potrace 1.14, written by Peter Selinger 2001-2017
</metadata>
<g transform="translate(0.000000,256.000000) scale(0.100000,-0.100000)"
fill="#000000" stroke="none">
<path d="M898 2217 c-14 -12 -30 -31 -36 -42 -6 -12 -9 -354 -8 -902 1 -878 1
-882 22 -910 46 -61 150 -50 178 20 20 47 20 1747 1 1794 -25 60 -108 81 -157
40z"/>
<path d="M593 2014 c-62 -31 -61 -13 -61 -734 0 -546 3 -660 15 -686 23 -52
85 -73 138 -49 65 31 62 2 63 725 0 394 -4 668 -9 687 -18 56 -89 84 -146 57z"/>
<path d="M1218 1897 c-14 -12 -30 -31 -36 -42 -6 -12 -9 -239 -8 -582 1 -554
1 -562 22 -590 46 -61 150 -50 178 20 17 41 20 1092 4 1145 -20 65 -109 93
-160 49z"/>
<path d="M1864 1901 c-19 -12 -36 -33 -42 -53 -14 -45 -14 -1091 0 -1136 11
-37 58 -72 96 -72 35 0 80 27 96 58 11 22 14 127 14 572 0 342 -3 557 -10 578
-11 37 -59 72 -98 72 -14 0 -39 -9 -56 -19z"/>
<path d="M283 1805 c-15 -7 -37 -22 -48 -35 -19 -21 -20 -37 -21 -486 l-1
-464 31 -35 c46 -53 110 -51 161 5 19 21 20 38 21 479 1 351 -1 462 -11 481
-28 55 -80 77 -132 55z"/>
<path d="M1561 1696 c-67 -22 -69 -33 -67 -424 1 -318 3 -349 19 -374 43 -63
148 -54 181 16 11 25 14 94 12 376 -1 317 -2 347 -19 372 -27 40 -73 52 -126
34z"/>
<path d="M2187 1692 c-53 -32 -55 -48 -54 -414 0 -375 2 -384 63 -413 63 -30
136 9 147 78 8 49 2 690 -7 709 -20 45 -104 67 -149 40z"/>
</g>
</svg>
